<?xml version="1.0" standalone="no"?><!DOCTYPE svg PUBLIC "-//W3C//DTD SVG 1.1//EN" "http://www.w3.org/Graphics/SVG/1.1/DTD/svg11.dtd"><svg t="1706776888871" class="icon" viewBox="0 0 1024 1024" version="1.1" xmlns="http://www.w3.org/2000/svg" p-id="7575" xmlns:xlink="http://www.w3.org/1999/xlink" width="200" height="200"><path d="M840.972 988H191.604a8 8 0 0 1-8-8v-19.64c0-160.932 130.46-291.392 291.392-291.392h82.58c160.932 0 291.392 130.46 291.392 291.392V980c0.004 4.42-3.58 8-7.996 8z" fill="#FF624B" p-id="7576"></path><path d="M816.932 968a12 12 0 0 1-11.996-11.8c-1.084-65.096-27.32-126.2-73.888-172.052a12 12 0 1 1 16.836-17.1c51.08 50.292 79.864 117.328 81.052 188.752a12.012 12.012 0 0 1-11.8 12.2h-0.204z" fill="#FF9079" p-id="7577"></path><path d="M586.996 708.968h82.58c13.604 0 26.964 1.008 40.072 2.808-44.272-27.14-96.336-42.808-152.072-42.808h-82.58c-160.932 0-291.392 130.46-291.392 291.392V980a8 8 0 0 0 8 8h104.312c6.484-155.192 134.292-279.032 291.08-279.032z" fill="#FF4B34" p-id="7578"></path><path d="M671.132 839.508V693.08c-36.64-15.468-77.12-24.116-119.72-24.116h-70.244c-42.604 0-83.08 8.648-119.72 24.116v146.428c0 82.012 69.324 148.492 154.844 148.492 85.512 0 154.84-66.48 154.84-148.492z" fill="#EACF32" p-id="7579"></path><path d="M481.128 668.968c-42.588 0.004-83.052 8.652-119.684 24.112v122.948c53.42-65.316 134.58-107.064 225.552-107.064h82.58c0.52 0 1.036 0.024 1.552 0.028v-15.916c-36.632-15.46-77.096-24.108-119.684-24.112h-70.316z" fill="#CCC033" p-id="7580"></path><path d="M635.104 809.664v-120.804a221.616 221.616 0 0 0-91.864-19.896h-53.9a221.6 221.6 0 0 0-91.864 19.896v120.804c0 67.66 53.196 122.508 118.816 122.508 65.616-0.004 118.812-54.852 118.812-122.508z" fill="#FCE575" p-id="7581"></path><path d="M489.3 668.968a221.516 221.516 0 0 0-91.828 19.896v90.304c50.936-43.732 117.112-70.2 189.524-70.2h48.104v-20.104a221.576 221.576 0 0 0-91.828-19.896h-53.972z" fill="#FCDA4F" p-id="7582"></path><path d="M516.288 815.948c49.872 0 90.3-42.192 90.3-94.236V676.84a259.292 259.292 0 0 0-58.524-6.736h-63.556a259.32 259.32 0 0 0-58.524 6.736v44.872c0.004 52.044 40.432 94.236 90.304 94.236z" fill="#FFD59A" p-id="7583"></path><path d="M229.248 457.952m-80 0a80 80 0 1 0 160 0 80 80 0 1 0-160 0Z" fill="#FFD59A" p-id="7584"></path><path d="M794.752 457.952m-80 0a80 80 0 1 0 160 0 80 80 0 1 0-160 0Z" fill="#FFEACF" p-id="7585"></path><path d="M516.92 759.376h-1.268c-156.5 0-283.368-126.868-283.368-283.368v-41.268c0-156.5 126.868-283.368 283.368-283.368h1.268c156.5 0 283.368 126.868 283.368 283.368v41.268c0 156.504-126.868 283.368-283.368 283.368z" fill="#FFEACF" p-id="7586"></path><path d="M763.216 396.42a12.012 12.012 0 0 1-11.748-9.604c-14.02-68.728-57.488-127.7-119.256-161.8a12 12 0 1 1 11.6-21.008c67.932 37.5 115.744 102.384 131.172 178.012a12 12 0 0 1-11.768 14.4z" fill="#FCF9DE" p-id="7587"></path><path d="M344.288 476.012v-41.264c0-137.548 98.012-252.168 228-277.92a284.64 284.64 0 0 0-55.368-5.444h-1.268c-156.5 0-283.364 126.868-283.364 283.368v41.264c0 156.5 126.868 283.368 283.364 283.368h1.268c18.952 0 37.456-1.9 55.368-5.444-129.988-25.764-228-140.384-228-277.928z" fill="#FFD59A" p-id="7588"></path><path d="M401.92 441.048m-36 0a36 36 0 1 0 72 0 36 36 0 1 0-72 0Z" fill="#A56021" p-id="7589"></path><path d="M629.296 441.048m-36 0a36 36 0 1 0 72 0 36 36 0 1 0-72 0Z" fill="#A56021" p-id="7590"></path><path d="M402.224 598.916a114.064 77.48 0 1 0 228.128 0 114.064 77.48 0 1 0-228.128 0Z" fill="#CCC033" p-id="7591"></path><path d="M516.288 614.068c-41.972 0-76 34.028-76 76s34.028 76 76 76 76-34.028 76-76-34.028-76-76-76z m0 124.364c-26.668 0-48.364-21.696-48.364-48.364s21.696-48.364 48.364-48.364c26.668 0 48.364 21.696 48.364 48.364s-21.696 48.364-48.364 48.364z" fill="#FFC34C" p-id="7592"></path><path d="M519.124 653.04h-5.668a31.028 31.028 0 0 1-31.028-31.028v-33.92h67.724v33.92a31.032 31.032 0 0 1-31.028 31.028z" fill="#EACF32" p-id="7593"></path><path d="M523.38 188.824c1.768 6.012-3.788 11.752-9.8 9.98-44.336-13.076-73.148-55.684-65.892-100.956 6.384-39.804 45.204-67.112 86.716-60.992 33.208 4.896 55.988 34.68 50.884 66.524-4.084 25.476-28.932 42.952-55.496 39.036-21.252-3.132-35.832-22.196-32.564-42.576l26.152 88.984z" fill="#BF6C0D" p-id="7594"></path><path d="M521.416 182.144c-25.084-19.76-39.016-51.288-33.728-84.292 4.692-29.272 26.956-51.732 54.904-59.16a63.532 63.532 0 0 0-8.188-1.832c-41.508-6.12-80.332 21.188-86.716 60.992-7.26 45.272 21.556 87.884 65.892 100.956 6.012 1.772 11.568-3.968 9.8-9.98l-1.964-6.684z" fill="#A56021" p-id="7595"></path><path d="M349.728 949.408m-36 0a36 36 0 1 0 72 0 36 36 0 1 0-72 0Z" fill="#FF4B34" p-id="7596"></path></svg>