<?xml version="1.0" standalone="no"?><!DOCTYPE svg PUBLIC "-//W3C//DTD SVG 1.1//EN" "http://www.w3.org/Graphics/SVG/1.1/DTD/svg11.dtd"><svg t="1735547813439" class="icon" viewBox="0 0 1024 1024" version="1.1" xmlns="http://www.w3.org/2000/svg" p-id="1500" xmlns:xlink="http://www.w3.org/1999/xlink" width="200" height="200"><path d="M700.081505 689.632512c41.79591 104.489775 104.489775 125.38773 167.183639 125.38773 41.79591 0 83.59182-43.196073 83.59182-62.693865v188.144288A83.59182 83.59182 0 0 1 867.09796 1023.999791H156.90186A83.696309 83.696309 0 0 1 73.142857 940.470665V752.326377c0 41.022686 41.79591 62.693865 83.59182 62.693865 62.693865 0 125.38773-20.897955 167.183639-125.38773 41.79591 83.59182 104.489775 125.199648 188.081594 125.38773 83.59182 0.188082 146.285684-41.79591 188.081595-125.38773z m-104.489775-334.367278v83.591819h208.854162C885.320977 438.857053 950.856964 504.476632 950.856964 584.933758V668.734557c0 19.497792-41.79591 62.693865-83.59182 62.693865-62.693865 0-125.38773-20.897955-167.183639-125.387729-41.79591 83.59182-104.489775 125.575811-188.081595 125.387729-83.59182-0.188082-146.285684-41.79591-188.081594-125.387729-41.79591 104.489775-104.489775 125.38773-167.183639 125.387729-41.79591 0-83.59182-21.671179-83.59182-62.693865v-83.717207C73.142857 504.28855 138.762436 438.857053 219.553929 438.857053H428.408091v-83.591819h167.183639zM511.99991 0s104.489775 151.280296 104.489775 208.979549a104.489775 104.489775 0 1 1-208.979549 0c0-57.699254 104.489775-208.979549 104.489774-208.979549z" fill="#F44B34" p-id="1501"></path></svg>