<?xml version="1.0" standalone="no"?><!DOCTYPE svg PUBLIC "-//W3C//DTD SVG 1.1//EN" "http://www.w3.org/Graphics/SVG/1.1/DTD/svg11.dtd"><svg t="1735880594732" class="icon" viewBox="0 0 1024 1024" version="1.1" xmlns="http://www.w3.org/2000/svg" p-id="13426" xmlns:xlink="http://www.w3.org/1999/xlink" width="200" height="200"><path d="M782.4 356.8c45.6-79.2 16-180.8-66.4-222.4-75.2-38.4-168.8-10.4-211.2 63.2-26.4 45.6-27.2 97.6-8.8 142.4 16.8 40 6.4 85.6-27.2 112.8l-0.8 0.8 124.8 72v-3.2c2.4-43.2 33.6-79.2 76.8-86.4 45.6-8.8 87.2-36 112.8-79.2z" fill="#FFF0B3" p-id="13427"></path><path d="M598.4 198.4c-9.6 0-18.4-5.6-22.4-14.4-5.6-12 0-26.4 12.8-31.2 23.2-10.4 49.6-13.6 74.4-10.4 12.8 1.6 22.4 13.6 20.8 27.2-1.6 12.8-13.6 22.4-27.2 20.8-16-2.4-32.8 0-48.8 6.4-3.2 1.6-6.4 1.6-9.6 1.6zM546.4 244.8c-4 0-7.2-0.8-10.4-2.4-12-5.6-16.8-20-10.4-32 4-8 12.8-13.6 21.6-13.6 13.6 0 24 10.4 24 24 0 4.8-1.6 8.8-3.2 12.8-5.6 7.2-13.6 11.2-21.6 11.2z" fill="#FFFFFF" p-id="13428"></path><path d="M543.2 538.4c-2.4 0-5.6-0.8-8-1.6-12.8-4.8-19.2-18.4-14.4-30.4l13.6-37.6c15.2-42.4 45.6-76 84-93.6 12.8-5.6 25.6-9.6 39.2-12 26.4-4 48.8-20 61.6-42.4 6.4-11.2 21.6-15.2 32.8-8.8s15.2 21.6 8.8 32.8c-20.8 35.2-55.2 59.2-96 66.4-9.6 1.6-18.4 4-27.2 8-26.4 12-48 36-58.4 65.6l-13.6 37.6c-3.2 10.4-12.8 16-22.4 16z" fill="#F2B630" p-id="13429"></path><path d="M664.8 704.8l-388-224c-23.2-13.6-31.2-42.4-17.6-65.6 13.6-23.2 42.4-31.2 65.6-17.6L425.6 456l287.2 165.6c23.2 13.6 31.2 42.4 17.6 65.6-13.6 23.2-43.2 30.4-65.6 17.6z" fill="#91F2BD" p-id="13430"></path><path d="M710.4 620.8L664 593.6c-23.2-13.6-52-5.6-65.6 17.6-13.6 23.2-5.6 52 17.6 65.6l48.8 28c23.2 13.6 53.6 4.8 66.4-19.2 12-23.2 2.4-52-20.8-64.8z" fill="#6DC289" p-id="13431"></path><path d="M820 224.8c-14.4-48.8-48-88.8-93.6-112-85.6-43.2-194.4-11.2-242.4 72-28.8 50.4-32.8 110.4-9.6 164 8 18.4 8 39.2 0.8 56.8-4.8 12 0.8 26.4 13.6 31.2 12 4.8 26.4-0.8 31.2-13.6 12-29.6 11.2-63.2-1.6-93.6-16.8-40-14.4-84 7.2-120.8 35.2-61.6 116-85.6 179.2-53.6 33.6 16.8 58.4 46.4 68.8 82.4 10.4 36 6.4 74.4-12.8 106.4-20.8 35.2-55.2 59.2-96 66.4-50.4 8-88.8 49.6-96 100.8l-232-134.4c-34.4-20-78.4-8-98.4 26.4-9.6 16.8-12 36-7.2 54.4s16.8 34.4 33.6 44L352 552c-3.2 0.8-5.6 0.8-8.8 1.6-47.2 12.8-87.2 43.2-112 85.6-50.4 88-20.8 200.8 67.2 251.2 28.8 16.8 60.8 24.8 92 24.8 64 0 125.6-32.8 160-92 27.2-46.4 31.2-100 16-148l86.4 50.4c11.2 6.4 24 9.6 36 9.6 24.8 0 48.8-12.8 62.4-36 20-34.4 8-78.4-26.4-98.4L616 538.4l0.8-15.2c1.6-32 25.6-59.2 56.8-64 54.4-8.8 101.6-41.6 129.6-89.6 24.8-44.8 31.2-96 16.8-144.8z m-312 574.4c-37.6 64.8-120.8 87.2-185.6 49.6S235.2 728 272.8 663.2c24.8-43.2 71.2-68 118.4-68 4.8 0 8.8 0 13.6 0.8-1.6 1.6-2.4 3.2-4 4.8-6.4 11.2-2.4 26.4 8.8 32.8l48.8 28c4 2.4 8 3.2 12 3.2 8 0 16-4 20.8-12 1.6-3.2 2.4-6.4 3.2-9.6 36 42.4 43.2 104.8 13.6 156z m201.6-124c-3.2 5.6-8 9.6-14.4 11.2s-12.8 0.8-18.4-2.4l-388-224c-5.6-3.2-9.6-8-11.2-14.4-1.6-6.4-0.8-12.8 2.4-18.4 6.4-11.2 21.6-15.2 32.8-8.8l388 224c11.2 6.4 15.2 20.8 8.8 32.8z" fill="#444B54" p-id="13432"></path></svg>